<svg xmlns="http://www.w3.org/2000/svg" xmlns:xlink="http://www.w3.org/1999/xlink" width="1000" zoomAndPan="magnify" viewBox="0 0 750 374.999991" height="500" preserveAspectRatio="xMidYMid meet" version="1.0"><defs><g/><clipPath id="1a1e6d032c"><path d="M 164.15625 62.5625 L 198.828125 62.5625 L 198.828125 97.234375 L 164.15625 97.234375 Z M 164.15625 62.5625 " clip-rule="nonzero"/></clipPath><clipPath id="062110d38d"><path d="M 181.492188 62.5625 C 171.917969 62.5625 164.15625 70.324219 164.15625 79.898438 C 164.15625 89.472656 171.917969 97.234375 181.492188 97.234375 C 191.066406 97.234375 198.828125 89.472656 198.828125 79.898438 C 198.828125 70.324219 191.066406 62.5625 181.492188 62.5625 Z M 181.492188 62.5625 " clip-rule="nonzero"/></clipPath><clipPath id="442500f47b"><path d="M 0 70.582031 L 144 70.582031 L 144 220.34375 L 0 220.34375 Z M 0 70.582031 " clip-rule="nonzero"/></clipPath><clipPath id="f6eb894e4a"><path d="M 82.445312 140.761719 L 18.382812 140.761719 C 15.898438 140.761719 14.101562 138.386719 14.773438 135.996094 L 32.359375 73.320312 C 32.816406 71.699219 34.289062 70.582031 35.972656 70.582031 L 100.03125 70.582031 C 102.515625 70.582031 104.316406 72.953125 103.644531 75.347656 L 86.054688 138.023438 C 85.601562 139.640625 84.125 140.761719 82.445312 140.761719 Z M 40.835938 188.070312 L 49.890625 155.800781 C 50.5625 153.40625 48.765625 151.035156 46.28125 151.035156 L 13.351562 151.035156 C 11.667969 151.035156 10.195312 152.152344 9.738281 153.773438 L 0.683594 186.042969 C 0.0117188 188.4375 1.8125 190.808594 4.296875 190.808594 L 37.226562 190.808594 C 38.90625 190.808594 40.382812 189.691406 40.835938 188.070312 Z M 57.5 153.773438 L 39.914062 216.449219 C 39.242188 218.839844 41.039062 221.214844 43.523438 221.214844 L 107.585938 221.214844 C 109.265625 221.214844 110.742188 220.09375 111.195312 218.476562 L 128.785156 155.800781 C 129.453125 153.40625 127.65625 151.035156 125.171875 151.035156 L 61.113281 151.035156 C 59.429688 151.035156 57.953125 152.152344 57.5 153.773438 Z M 102.71875 103.726562 L 93.664062 135.996094 C 92.992188 138.386719 94.792969 140.761719 97.277344 140.761719 L 130.207031 140.761719 C 131.886719 140.761719 133.363281 139.640625 133.816406 138.023438 L 142.871094 105.75 C 143.542969 103.359375 141.746094 100.988281 139.261719 100.988281 L 106.332031 100.988281 C 104.648438 100.988281 103.175781 102.105469 102.71875 103.726562 Z M 102.71875 103.726562 " clip-rule="nonzero"/></clipPath></defs><rect x="-75" width="900" fill="#ffffff" y="-37.499999" height="449.999989" fill-opacity="1"/><rect x="-75" width="900" fill="#000000" y="-37.499999" height="449.999989" fill-opacity="1"/><g fill="#ffffff" fill-opacity="1"><g transform="translate(9.335304, 275.957098)"><g><path d="M 9.828125 -34.046875 C 12.515625 -34.046875 14.515625 -33.332031 15.828125 -31.90625 C 17.140625 -30.476562 17.796875 -28.390625 17.796875 -25.640625 L 17.796875 -21.203125 C 17.796875 -18.453125 17.140625 -16.363281 15.828125 -14.9375 C 14.515625 -13.507812 12.515625 -12.796875 9.828125 -12.796875 L 7.296875 -12.796875 L 7.296875 0 L 1.953125 0 L 1.953125 -34.046875 Z M 7.296875 -29.1875 L 7.296875 -17.65625 L 9.828125 -17.65625 C 10.671875 -17.65625 11.316406 -17.878906 11.765625 -18.328125 C 12.222656 -18.785156 12.453125 -19.628906 12.453125 -20.859375 L 12.453125 -25.96875 C 12.453125 -27.207031 12.222656 -28.050781 11.765625 -28.5 C 11.316406 -28.957031 10.671875 -29.1875 9.828125 -29.1875 Z M 7.296875 -29.1875 "/></g></g></g><g fill="#ffffff" fill-opacity="1"><g transform="translate(27.669005, 275.957098)"><g><path d="M 6.859375 -7.828125 C 6.859375 -6.597656 7.109375 -5.726562 7.609375 -5.21875 C 8.109375 -4.71875 8.78125 -4.46875 9.625 -4.46875 C 10.46875 -4.46875 11.140625 -4.71875 11.640625 -5.21875 C 12.148438 -5.726562 12.40625 -6.597656 12.40625 -7.828125 L 12.40625 -26.21875 C 12.40625 -27.445312 12.148438 -28.3125 11.640625 -28.8125 C 11.140625 -29.320312 10.46875 -29.578125 9.625 -29.578125 C 8.78125 -29.578125 8.109375 -29.320312 7.609375 -28.8125 C 7.109375 -28.3125 6.859375 -27.445312 6.859375 -26.21875 Z M 1.515625 -25.875 C 1.515625 -28.632812 2.207031 -30.75 3.59375 -32.21875 C 4.988281 -33.695312 7 -34.4375 9.625 -34.4375 C 12.257812 -34.4375 14.269531 -33.695312 15.65625 -32.21875 C 17.050781 -30.75 17.75 -28.632812 17.75 -25.875 L 17.75 -8.171875 C 17.75 -5.410156 17.050781 -3.289062 15.65625 -1.8125 C 14.269531 -0.34375 12.257812 0.390625 9.625 0.390625 C 7 0.390625 4.988281 -0.34375 3.59375 -1.8125 C 2.207031 -3.289062 1.515625 -5.410156 1.515625 -8.171875 Z M 1.515625 -25.875 "/></g></g></g><g fill="#ffffff" fill-opacity="1"><g transform="translate(46.926679, 275.957098)"><g><path d="M 13.8125 -18.140625 L 11.875 0 L 4.53125 0 L 0.734375 -34.046875 L 5.9375 -34.046875 L 8.796875 -7.203125 L 11.375 -34.046875 L 16.53125 -34.046875 L 19.21875 -7 L 21.984375 -34.046875 L 26.65625 -34.046875 L 22.859375 0 L 15.765625 0 Z M 13.8125 -18.140625 "/></g></g></g><g fill="#ffffff" fill-opacity="1"><g transform="translate(74.305633, 275.957098)"><g><path d="M 7.296875 -19.703125 L 14.640625 -19.703125 L 14.640625 -14.828125 L 7.296875 -14.828125 L 7.296875 -4.859375 L 16.53125 -4.859375 L 16.53125 0 L 1.953125 0 L 1.953125 -34.046875 L 16.53125 -34.046875 L 16.53125 -29.1875 L 7.296875 -29.1875 Z M 7.296875 -19.703125 "/></g></g></g><g fill="#ffffff" fill-opacity="1"><g transform="translate(92.201664, 275.957098)"><g><path d="M 13.140625 0 C 13.066406 -0.226562 13 -0.4375 12.9375 -0.625 C 12.875 -0.820312 12.816406 -1.066406 12.765625 -1.359375 C 12.710938 -1.648438 12.675781 -2.019531 12.65625 -2.46875 C 12.644531 -2.925781 12.640625 -3.5 12.640625 -4.1875 L 12.640625 -9.53125 C 12.640625 -11.125 12.363281 -12.242188 11.8125 -12.890625 C 11.269531 -13.535156 10.378906 -13.859375 9.140625 -13.859375 L 7.296875 -13.859375 L 7.296875 0 L 1.953125 0 L 1.953125 -34.046875 L 10.015625 -34.046875 C 12.804688 -34.046875 14.828125 -33.394531 16.078125 -32.09375 C 17.328125 -30.800781 17.953125 -28.84375 17.953125 -26.21875 L 17.953125 -23.546875 C 17.953125 -20.035156 16.785156 -17.734375 14.453125 -16.640625 C 15.804688 -16.085938 16.734375 -15.1875 17.234375 -13.9375 C 17.742188 -12.6875 18 -11.171875 18 -9.390625 L 18 -4.140625 C 18 -3.296875 18.03125 -2.554688 18.09375 -1.921875 C 18.15625 -1.285156 18.316406 -0.644531 18.578125 0 Z M 7.296875 -29.1875 L 7.296875 -18.734375 L 9.390625 -18.734375 C 10.390625 -18.734375 11.171875 -18.988281 11.734375 -19.5 C 12.304688 -20.019531 12.59375 -20.960938 12.59375 -22.328125 L 12.59375 -25.6875 C 12.59375 -26.914062 12.375 -27.804688 11.9375 -28.359375 C 11.5 -28.910156 10.8125 -29.1875 9.875 -29.1875 Z M 7.296875 -29.1875 "/></g></g></g><g fill="#ffffff" fill-opacity="1"><g transform="translate(111.751108, 275.957098)"><g><path d="M 7.296875 -19.703125 L 14.640625 -19.703125 L 14.640625 -14.828125 L 7.296875 -14.828125 L 7.296875 -4.859375 L 16.53125 -4.859375 L 16.53125 0 L 1.953125 0 L 1.953125 -34.046875 L 16.53125 -34.046875 L 16.53125 -29.1875 L 7.296875 -29.1875 Z M 7.296875 -19.703125 "/></g></g></g><g fill="#ffffff" fill-opacity="1"><g transform="translate(129.64714, 275.957098)"><g><path d="M 1.953125 -34.046875 L 10.40625 -34.046875 C 13.101562 -34.046875 15.109375 -33.332031 16.421875 -31.90625 C 17.734375 -30.476562 18.390625 -28.390625 18.390625 -25.640625 L 18.390625 -8.421875 C 18.390625 -5.660156 17.734375 -3.566406 16.421875 -2.140625 C 15.109375 -0.710938 13.101562 0 10.40625 0 L 1.953125 0 Z M 7.296875 -29.1875 L 7.296875 -4.859375 L 10.3125 -4.859375 C 11.15625 -4.859375 11.816406 -5.101562 12.296875 -5.59375 C 12.785156 -6.082031 13.03125 -6.941406 13.03125 -8.171875 L 13.03125 -25.875 C 13.03125 -27.101562 12.785156 -27.960938 12.296875 -28.453125 C 11.816406 -28.941406 11.15625 -29.1875 10.3125 -29.1875 Z M 7.296875 -29.1875 "/></g></g></g><g fill="#ffffff" fill-opacity="1"><g transform="translate(149.488383, 275.957098)"><g/></g></g><g fill="#ffffff" fill-opacity="1"><g transform="translate(157.026094, 275.957098)"><g><path d="M 10.015625 -34.046875 C 12.804688 -34.046875 14.828125 -33.394531 16.078125 -32.09375 C 17.328125 -30.800781 17.953125 -28.84375 17.953125 -26.21875 L 17.953125 -25 C 17.953125 -23.25 17.675781 -21.804688 17.125 -20.671875 C 16.570312 -19.535156 15.695312 -18.691406 14.5 -18.140625 C 15.957031 -17.585938 16.984375 -16.6875 17.578125 -15.4375 C 18.179688 -14.195312 18.484375 -12.664062 18.484375 -10.84375 L 18.484375 -8.078125 C 18.484375 -5.453125 17.800781 -3.445312 16.4375 -2.0625 C 15.070312 -0.6875 13.046875 0 10.359375 0 L 1.953125 0 L 1.953125 -34.046875 Z M 7.296875 -15.328125 L 7.296875 -4.859375 L 10.359375 -4.859375 C 11.265625 -4.859375 11.953125 -5.101562 12.421875 -5.59375 C 12.898438 -6.082031 13.140625 -6.957031 13.140625 -8.21875 L 13.140625 -11.1875 C 13.140625 -12.78125 12.867188 -13.867188 12.328125 -14.453125 C 11.796875 -15.035156 10.910156 -15.328125 9.671875 -15.328125 Z M 7.296875 -29.1875 L 7.296875 -20.1875 L 9.390625 -20.1875 C 10.390625 -20.1875 11.171875 -20.445312 11.734375 -20.96875 C 12.304688 -21.488281 12.59375 -22.425781 12.59375 -23.78125 L 12.59375 -25.6875 C 12.59375 -26.914062 12.375 -27.804688 11.9375 -28.359375 C 11.5 -28.910156 10.8125 -29.1875 9.875 -29.1875 Z M 7.296875 -29.1875 "/></g></g></g><g fill="#ffffff" fill-opacity="1"><g transform="translate(176.77007, 275.957098)"><g><path d="M 6.953125 -11.28125 L 0.1875 -34.046875 L 5.78125 -34.046875 L 9.875 -18.53125 L 13.953125 -34.046875 L 19.0625 -34.046875 L 12.3125 -11.28125 L 12.3125 0 L 6.953125 0 Z M 6.953125 -11.28125 "/></g></g></g><g fill="#f48701" fill-opacity="1"><g transform="translate(210.738833, 273.363925)"><g><path d="M 29.640625 -28.625 L 29.640625 0 L 23.015625 0 L 23.015625 -11.734375 L 10.015625 -11.734375 L 10.015625 0 L 3.390625 0 L 3.390625 -28.625 L 10.015625 -28.625 L 10.015625 -17.34375 L 23.015625 -17.34375 L 23.015625 -28.625 Z M 29.640625 -28.625 "/></g></g></g><g fill="#f48701" fill-opacity="1"><g transform="translate(243.759658, 273.363925)"><g><path d="M 22.25 -6.140625 L 8.953125 -6.140625 L 6.421875 0 L -0.375 0 L 12.390625 -28.625 L 18.9375 -28.625 L 31.734375 0 L 24.78125 0 Z M 20.15625 -11.15625 L 15.625 -22.125 L 11.078125 -11.15625 Z M 20.15625 -11.15625 "/></g></g></g><g fill="#f48701" fill-opacity="1"><g transform="translate(275.064086, 273.363925)"><g><path d="M 3.390625 -28.625 L 10.015625 -28.625 L 10.015625 -5.390625 L 24.375 -5.390625 L 24.375 0 L 3.390625 0 Z M 3.390625 -28.625 "/></g></g></g><g fill="#f48701" fill-opacity="1"><g transform="translate(299.747997, 273.363925)"><g><path d="M 3.390625 -28.625 L 10.015625 -28.625 L 10.015625 -5.390625 L 24.375 -5.390625 L 24.375 0 L 3.390625 0 Z M 3.390625 -28.625 "/></g></g></g><g fill="#f48701" fill-opacity="1"><g transform="translate(324.431908, 273.363925)"><g><path d="M 17.25 0.484375 C 14.28125 0.484375 11.601562 -0.15625 9.21875 -1.4375 C 6.832031 -2.71875 4.960938 -4.476562 3.609375 -6.71875 C 2.265625 -8.96875 1.59375 -11.5 1.59375 -14.3125 C 1.59375 -17.125 2.265625 -19.648438 3.609375 -21.890625 C 4.960938 -24.140625 6.832031 -25.90625 9.21875 -27.1875 C 11.601562 -28.46875 14.28125 -29.109375 17.25 -29.109375 C 20.226562 -29.109375 22.898438 -28.46875 25.265625 -27.1875 C 27.640625 -25.90625 29.507812 -24.140625 30.875 -21.890625 C 32.238281 -19.648438 32.921875 -17.125 32.921875 -14.3125 C 32.921875 -11.5 32.238281 -8.96875 30.875 -6.71875 C 29.507812 -4.476562 27.640625 -2.71875 25.265625 -1.4375 C 22.898438 -0.15625 20.226562 0.484375 17.25 0.484375 Z M 17.25 -5.15625 C 18.945312 -5.15625 20.472656 -5.539062 21.828125 -6.3125 C 23.191406 -7.09375 24.257812 -8.175781 25.03125 -9.5625 C 25.8125 -10.957031 26.203125 -12.539062 26.203125 -14.3125 C 26.203125 -16.082031 25.8125 -17.660156 25.03125 -19.046875 C 24.257812 -20.441406 23.191406 -21.523438 21.828125 -22.296875 C 20.472656 -23.078125 18.945312 -23.46875 17.25 -23.46875 C 15.5625 -23.46875 14.035156 -23.078125 12.671875 -22.296875 C 11.304688 -21.523438 10.234375 -20.441406 9.453125 -19.046875 C 8.679688 -17.660156 8.296875 -16.082031 8.296875 -14.3125 C 8.296875 -12.539062 8.679688 -10.957031 9.453125 -9.5625 C 10.234375 -8.175781 11.304688 -7.09375 12.671875 -6.3125 C 14.035156 -5.539062 15.5625 -5.15625 17.25 -5.15625 Z M 17.25 -5.15625 "/></g></g></g><g fill="#f48701" fill-opacity="1"><g transform="translate(358.92398, 273.363925)"><g><path d="M 9.328125 -23.21875 L 0.15625 -23.21875 L 0.15625 -28.625 L 25.109375 -28.625 L 25.109375 -23.21875 L 15.953125 -23.21875 L 15.953125 0 L 9.328125 0 Z M 9.328125 -23.21875 "/></g></g></g><g fill="#f48701" fill-opacity="1"><g transform="translate(384.180024, 273.363925)"><g><path d="M 25.5625 -5.3125 L 25.5625 0 L 3.390625 0 L 3.390625 -28.625 L 25.03125 -28.625 L 25.03125 -23.3125 L 9.984375 -23.3125 L 9.984375 -17.09375 L 23.265625 -17.09375 L 23.265625 -11.9375 L 9.984375 -11.9375 L 9.984375 -5.3125 Z M 25.5625 -5.3125 "/></g></g></g><g fill="#f48701" fill-opacity="1"><g transform="translate(411.602042, 273.363925)"><g><path d="M 17.09375 0.484375 C 14.175781 0.484375 11.535156 -0.144531 9.171875 -1.40625 C 6.816406 -2.675781 4.960938 -4.4375 3.609375 -6.6875 C 2.265625 -8.9375 1.59375 -11.476562 1.59375 -14.3125 C 1.59375 -17.144531 2.265625 -19.6875 3.609375 -21.9375 C 4.960938 -24.1875 6.816406 -25.941406 9.171875 -27.203125 C 11.535156 -28.472656 14.191406 -29.109375 17.140625 -29.109375 C 19.617188 -29.109375 21.859375 -28.671875 23.859375 -27.796875 C 25.859375 -26.929688 27.539062 -25.679688 28.90625 -24.046875 L 24.65625 -20.125 C 22.71875 -22.351562 20.316406 -23.46875 17.453125 -23.46875 C 15.679688 -23.46875 14.097656 -23.078125 12.703125 -22.296875 C 11.316406 -21.523438 10.234375 -20.441406 9.453125 -19.046875 C 8.679688 -17.660156 8.296875 -16.082031 8.296875 -14.3125 C 8.296875 -12.539062 8.679688 -10.957031 9.453125 -9.5625 C 10.234375 -8.175781 11.316406 -7.09375 12.703125 -6.3125 C 14.097656 -5.539062 15.679688 -5.15625 17.453125 -5.15625 C 20.316406 -5.15625 22.71875 -6.285156 24.65625 -8.546875 L 28.90625 -4.625 C 27.539062 -2.957031 25.847656 -1.6875 23.828125 -0.8125 C 21.816406 0.0507812 19.570312 0.484375 17.09375 0.484375 Z M 17.09375 0.484375 "/></g></g></g><g fill="#f48701" fill-opacity="1"><g transform="translate(441.557818, 273.363925)"><g><path d="M 29.640625 -28.625 L 29.640625 0 L 23.015625 0 L 23.015625 -11.734375 L 10.015625 -11.734375 L 10.015625 0 L 3.390625 0 L 3.390625 -28.625 L 10.015625 -28.625 L 10.015625 -17.34375 L 23.015625 -17.34375 L 23.015625 -28.625 Z M 29.640625 -28.625 "/></g></g></g><g fill="#f48701" fill-opacity="1"><g transform="translate(474.578643, 273.363925)"><g/></g></g><g fill="#f48701" fill-opacity="1"><g transform="translate(486.144117, 273.363925)"><g><path d="M 12.796875 0.484375 C 10.535156 0.484375 8.347656 0.179688 6.234375 -0.421875 C 4.117188 -1.035156 2.421875 -1.835938 1.140625 -2.828125 L 3.390625 -7.8125 C 4.617188 -6.90625 6.078125 -6.179688 7.765625 -5.640625 C 9.453125 -5.097656 11.144531 -4.828125 12.84375 -4.828125 C 14.71875 -4.828125 16.101562 -5.101562 17 -5.65625 C 17.90625 -6.21875 18.359375 -6.960938 18.359375 -7.890625 C 18.359375 -8.578125 18.09375 -9.144531 17.5625 -9.59375 C 17.03125 -10.039062 16.347656 -10.398438 15.515625 -10.671875 C 14.679688 -10.941406 13.554688 -11.242188 12.140625 -11.578125 C 9.960938 -12.085938 8.175781 -12.601562 6.78125 -13.125 C 5.394531 -13.644531 4.203125 -14.476562 3.203125 -15.625 C 2.210938 -16.769531 1.71875 -18.296875 1.71875 -20.203125 C 1.71875 -21.859375 2.164062 -23.363281 3.0625 -24.71875 C 3.96875 -26.070312 5.328125 -27.140625 7.140625 -27.921875 C 8.953125 -28.710938 11.164062 -29.109375 13.78125 -29.109375 C 15.601562 -29.109375 17.382812 -28.890625 19.125 -28.453125 C 20.875 -28.023438 22.40625 -27.398438 23.71875 -26.578125 L 21.671875 -21.546875 C 19.023438 -23.046875 16.378906 -23.796875 13.734375 -23.796875 C 11.878906 -23.796875 10.507812 -23.492188 9.625 -22.890625 C 8.738281 -22.296875 8.296875 -21.507812 8.296875 -20.53125 C 8.296875 -19.550781 8.804688 -18.820312 9.828125 -18.34375 C 10.859375 -17.863281 12.421875 -17.390625 14.515625 -16.921875 C 16.691406 -16.410156 18.472656 -15.894531 19.859375 -15.375 C 21.253906 -14.851562 22.445312 -14.035156 23.4375 -12.921875 C 24.4375 -11.804688 24.9375 -10.289062 24.9375 -8.375 C 24.9375 -6.738281 24.476562 -5.242188 23.5625 -3.890625 C 22.65625 -2.546875 21.285156 -1.476562 19.453125 -0.6875 C 17.628906 0.09375 15.410156 0.484375 12.796875 0.484375 Z M 12.796875 0.484375 "/></g></g></g><g fill="#f48701" fill-opacity="1"><g transform="translate(512.21752, 273.363925)"><g><path d="M 17.25 0.484375 C 14.28125 0.484375 11.601562 -0.15625 9.21875 -1.4375 C 6.832031 -2.71875 4.960938 -4.476562 3.609375 -6.71875 C 2.265625 -8.96875 1.59375 -11.5 1.59375 -14.3125 C 1.59375 -17.125 2.265625 -19.648438 3.609375 -21.890625 C 4.960938 -24.140625 6.832031 -25.90625 9.21875 -27.1875 C 11.601562 -28.46875 14.28125 -29.109375 17.25 -29.109375 C 20.226562 -29.109375 22.898438 -28.46875 25.265625 -27.1875 C 27.640625 -25.90625 29.507812 -24.140625 30.875 -21.890625 C 32.238281 -19.648438 32.921875 -17.125 32.921875 -14.3125 C 32.921875 -11.5 32.238281 -8.96875 30.875 -6.71875 C 29.507812 -4.476562 27.640625 -2.71875 25.265625 -1.4375 C 22.898438 -0.15625 20.226562 0.484375 17.25 0.484375 Z M 17.25 -5.15625 C 18.945312 -5.15625 20.472656 -5.539062 21.828125 -6.3125 C 23.191406 -7.09375 24.257812 -8.175781 25.03125 -9.5625 C 25.8125 -10.957031 26.203125 -12.539062 26.203125 -14.3125 C 26.203125 -16.082031 25.8125 -17.660156 25.03125 -19.046875 C 24.257812 -20.441406 23.191406 -21.523438 21.828125 -22.296875 C 20.472656 -23.078125 18.945312 -23.46875 17.25 -23.46875 C 15.5625 -23.46875 14.035156 -23.078125 12.671875 -22.296875 C 11.304688 -21.523438 10.234375 -20.441406 9.453125 -19.046875 C 8.679688 -17.660156 8.296875 -16.082031 8.296875 -14.3125 C 8.296875 -12.539062 8.679688 -10.957031 9.453125 -9.5625 C 10.234375 -8.175781 11.304688 -7.09375 12.671875 -6.3125 C 14.035156 -5.539062 15.5625 -5.15625 17.25 -5.15625 Z M 17.25 -5.15625 "/></g></g></g><g fill="#f48701" fill-opacity="1"><g transform="translate(546.709593, 273.363925)"><g><path d="M 3.390625 -28.625 L 10.015625 -28.625 L 10.015625 -5.390625 L 24.375 -5.390625 L 24.375 0 L 3.390625 0 Z M 3.390625 -28.625 "/></g></g></g><g fill="#f48701" fill-opacity="1"><g transform="translate(571.393504, 273.363925)"><g><path d="M 16.109375 0.484375 C 12.023438 0.484375 8.84375 -0.644531 6.5625 -2.90625 C 4.289062 -5.164062 3.15625 -8.394531 3.15625 -12.59375 L 3.15625 -28.625 L 9.765625 -28.625 L 9.765625 -12.84375 C 9.765625 -7.71875 11.894531 -5.15625 16.15625 -5.15625 C 18.226562 -5.15625 19.804688 -5.773438 20.890625 -7.015625 C 21.984375 -8.253906 22.53125 -10.195312 22.53125 -12.84375 L 22.53125 -28.625 L 29.078125 -28.625 L 29.078125 -12.59375 C 29.078125 -8.394531 27.9375 -5.164062 25.65625 -2.90625 C 23.382812 -0.644531 20.203125 0.484375 16.109375 0.484375 Z M 16.109375 0.484375 "/></g></g></g><g fill="#f48701" fill-opacity="1"><g transform="translate(603.597007, 273.363925)"><g><path d="M 9.328125 -23.21875 L 0.15625 -23.21875 L 0.15625 -28.625 L 25.109375 -28.625 L 25.109375 -23.21875 L 15.953125 -23.21875 L 15.953125 0 L 9.328125 0 Z M 9.328125 -23.21875 "/></g></g></g><g fill="#f48701" fill-opacity="1"><g transform="translate(628.853051, 273.363925)"><g><path d="M 3.390625 -28.625 L 10.015625 -28.625 L 10.015625 0 L 3.390625 0 Z M 3.390625 -28.625 "/></g></g></g><g fill="#f48701" fill-opacity="1"><g transform="translate(642.257555, 273.363925)"><g><path d="M 17.25 0.484375 C 14.28125 0.484375 11.601562 -0.15625 9.21875 -1.4375 C 6.832031 -2.71875 4.960938 -4.476562 3.609375 -6.71875 C 2.265625 -8.96875 1.59375 -11.5 1.59375 -14.3125 C 1.59375 -17.125 2.265625 -19.648438 3.609375 -21.890625 C 4.960938 -24.140625 6.832031 -25.90625 9.21875 -27.1875 C 11.601562 -28.46875 14.28125 -29.109375 17.25 -29.109375 C 20.226562 -29.109375 22.898438 -28.46875 25.265625 -27.1875 C 27.640625 -25.90625 29.507812 -24.140625 30.875 -21.890625 C 32.238281 -19.648438 32.921875 -17.125 32.921875 -14.3125 C 32.921875 -11.5 32.238281 -8.96875 30.875 -6.71875 C 29.507812 -4.476562 27.640625 -2.71875 25.265625 -1.4375 C 22.898438 -0.15625 20.226562 0.484375 17.25 0.484375 Z M 17.25 -5.15625 C 18.945312 -5.15625 20.472656 -5.539062 21.828125 -6.3125 C 23.191406 -7.09375 24.257812 -8.175781 25.03125 -9.5625 C 25.8125 -10.957031 26.203125 -12.539062 26.203125 -14.3125 C 26.203125 -16.082031 25.8125 -17.660156 25.03125 -19.046875 C 24.257812 -20.441406 23.191406 -21.523438 21.828125 -22.296875 C 20.472656 -23.078125 18.945312 -23.46875 17.25 -23.46875 C 15.5625 -23.46875 14.035156 -23.078125 12.671875 -22.296875 C 11.304688 -21.523438 10.234375 -20.441406 9.453125 -19.046875 C 8.679688 -17.660156 8.296875 -16.082031 8.296875 -14.3125 C 8.296875 -12.539062 8.679688 -10.957031 9.453125 -9.5625 C 10.234375 -8.175781 11.304688 -7.09375 12.671875 -6.3125 C 14.035156 -5.539062 15.5625 -5.15625 17.25 -5.15625 Z M 17.25 -5.15625 "/></g></g></g><g fill="#f48701" fill-opacity="1"><g transform="translate(676.749628, 273.363925)"><g><path d="M 29.640625 -28.625 L 29.640625 0 L 24.203125 0 L 9.9375 -17.375 L 9.9375 0 L 3.390625 0 L 3.390625 -28.625 L 8.875 -28.625 L 23.109375 -11.25 L 23.109375 -28.625 Z M 29.640625 -28.625 "/></g></g></g><g fill="#f48701" fill-opacity="1"><g transform="translate(709.770453, 273.363925)"><g><path d="M 12.796875 0.484375 C 10.535156 0.484375 8.347656 0.179688 6.234375 -0.421875 C 4.117188 -1.035156 2.421875 -1.835938 1.140625 -2.828125 L 3.390625 -7.8125 C 4.617188 -6.90625 6.078125 -6.179688 7.765625 -5.640625 C 9.453125 -5.097656 11.144531 -4.828125 12.84375 -4.828125 C 14.71875 -4.828125 16.101562 -5.101562 17 -5.65625 C 17.90625 -6.21875 18.359375 -6.960938 18.359375 -7.890625 C 18.359375 -8.578125 18.09375 -9.144531 17.5625 -9.59375 C 17.03125 -10.039062 16.347656 -10.398438 15.515625 -10.671875 C 14.679688 -10.941406 13.554688 -11.242188 12.140625 -11.578125 C 9.960938 -12.085938 8.175781 -12.601562 6.78125 -13.125 C 5.394531 -13.644531 4.203125 -14.476562 3.203125 -15.625 C 2.210938 -16.769531 1.71875 -18.296875 1.71875 -20.203125 C 1.71875 -21.859375 2.164062 -23.363281 3.0625 -24.71875 C 3.96875 -26.070312 5.328125 -27.140625 7.140625 -27.921875 C 8.953125 -28.710938 11.164062 -29.109375 13.78125 -29.109375 C 15.601562 -29.109375 17.382812 -28.890625 19.125 -28.453125 C 20.875 -28.023438 22.40625 -27.398438 23.71875 -26.578125 L 21.671875 -21.546875 C 19.023438 -23.046875 16.378906 -23.796875 13.734375 -23.796875 C 11.878906 -23.796875 10.507812 -23.492188 9.625 -22.890625 C 8.738281 -22.296875 8.296875 -21.507812 8.296875 -20.53125 C 8.296875 -19.550781 8.804688 -18.820312 9.828125 -18.34375 C 10.859375 -17.863281 12.421875 -17.390625 14.515625 -16.921875 C 16.691406 -16.410156 18.472656 -15.894531 19.859375 -15.375 C 21.253906 -14.851562 22.445312 -14.035156 23.4375 -12.921875 C 24.4375 -11.804688 24.9375 -10.289062 24.9375 -8.375 C 24.9375 -6.738281 24.476562 -5.242188 23.5625 -3.890625 C 22.65625 -2.546875 21.285156 -1.476562 19.453125 -0.6875 C 17.628906 0.09375 15.410156 0.484375 12.796875 0.484375 Z M 12.796875 0.484375 "/></g></g></g><g clip-path="url(#1a1e6d032c)"><g clip-path="url(#062110d38d)"><path fill="#f48701" d="M 164.15625 62.5625 L 198.828125 62.5625 L 198.828125 97.234375 L 164.15625 97.234375 Z M 164.15625 62.5625 " fill-opacity="1" fill-rule="nonzero"/></g></g><g clip-path="url(#442500f47b)"><g clip-path="url(#f6eb894e4a)"><path fill="#ffffff" d="M 0.0117188 70.582031 L 0.0117188 220.34375 L 143.542969 220.34375 L 143.542969 70.582031 Z M 0.0117188 70.582031 " fill-opacity="1" fill-rule="nonzero"/></g></g><g fill="#ffffff" fill-opacity="1"><g transform="translate(168.917386, 175.066212)"><g><path d="M 13.4375 0.46875 C 12.238281 0.46875 11.226562 0.0625 10.40625 -0.75 C 9.582031 -1.570312 9.171875 -2.582031 9.171875 -3.78125 L 9.171875 -62.171875 C 9.171875 -63.367188 9.582031 -64.390625 10.40625 -65.234375 C 11.226562 -66.085938 12.238281 -66.515625 13.4375 -66.515625 C 14.632812 -66.515625 15.660156 -66.085938 16.515625 -65.234375 C 17.367188 -64.390625 17.796875 -63.367188 17.796875 -62.171875 L 17.796875 -3.78125 C 17.796875 -2.582031 17.367188 -1.570312 16.515625 -0.75 C 15.660156 0.0625 14.632812 0.46875 13.4375 0.46875 Z M 13.4375 0.46875 "/></g></g></g><g fill="#ffffff" fill-opacity="1"><g transform="translate(195.881835, 175.066212)"><g><path d="M 29.8125 0.953125 C 25.269531 0.953125 21.070312 -0.0546875 17.21875 -2.078125 C 13.375 -4.097656 10.300781 -7 8 -10.78125 C 5.695312 -14.570312 4.546875 -19.019531 4.546875 -24.125 C 4.546875 -29.238281 5.695312 -33.6875 8 -37.46875 C 10.300781 -41.257812 13.375 -44.160156 17.21875 -46.171875 C 21.070312 -48.191406 25.269531 -49.203125 29.8125 -49.203125 C 33.15625 -49.203125 36.039062 -48.773438 38.46875 -47.921875 C 40.894531 -47.078125 43.148438 -45.988281 45.234375 -44.65625 C 46.492188 -43.84375 47.125 -42.738281 47.125 -41.34375 C 47.125 -40.40625 46.757812 -39.539062 46.03125 -38.75 C 45.3125 -37.957031 44.476562 -37.5625 43.53125 -37.5625 C 42.832031 -37.5625 42.140625 -37.753906 41.453125 -38.140625 C 39.367188 -39.210938 37.582031 -39.984375 36.09375 -40.453125 C 34.613281 -40.921875 32.769531 -41.15625 30.5625 -41.15625 C 25.132812 -41.15625 20.875 -39.59375 17.78125 -36.46875 C 14.695312 -33.351562 13.15625 -29.238281 13.15625 -24.125 C 13.15625 -19.019531 14.695312 -14.90625 17.78125 -11.78125 C 20.875 -8.65625 25.132812 -7.09375 30.5625 -7.09375 C 32.769531 -7.09375 34.613281 -7.328125 36.09375 -7.796875 C 37.582031 -8.273438 39.367188 -9.050781 41.453125 -10.125 C 42.140625 -10.5 42.832031 -10.6875 43.53125 -10.6875 C 44.476562 -10.6875 45.3125 -10.289062 46.03125 -9.5 C 46.757812 -8.71875 47.125 -7.851562 47.125 -6.90625 C 47.125 -5.519531 46.492188 -4.414062 45.234375 -3.59375 C 43.148438 -2.269531 40.894531 -1.179688 38.46875 -0.328125 C 36.039062 0.523438 33.15625 0.953125 29.8125 0.953125 Z M 29.8125 0.953125 "/></g></g></g><g fill="#ffffff" fill-opacity="1"><g transform="translate(246.310084, 175.066212)"><g><path d="M 28.765625 0.953125 C 23.910156 0.953125 19.648438 -0.0859375 15.984375 -2.171875 C 12.328125 -4.253906 9.503906 -7.203125 7.515625 -11.015625 C 5.535156 -14.835938 4.546875 -19.207031 4.546875 -24.125 C 4.546875 -29.050781 5.535156 -33.421875 7.515625 -37.234375 C 9.503906 -41.046875 12.328125 -43.992188 15.984375 -46.078125 C 19.648438 -48.160156 23.910156 -49.203125 28.765625 -49.203125 C 33.554688 -49.203125 37.78125 -48.160156 41.4375 -46.078125 C 45.101562 -43.992188 47.941406 -41.046875 49.953125 -37.234375 C 51.972656 -33.421875 52.984375 -29.050781 52.984375 -24.125 C 52.984375 -19.207031 51.972656 -14.835938 49.953125 -11.015625 C 47.941406 -7.203125 45.101562 -4.253906 41.4375 -2.171875 C 37.78125 -0.0859375 33.554688 0.953125 28.765625 0.953125 Z M 28.765625 -6.90625 C 31.347656 -6.90625 33.820312 -7.503906 36.1875 -8.703125 C 38.5625 -9.898438 40.519531 -11.789062 42.0625 -14.375 C 43.601562 -16.96875 44.375 -20.25 44.375 -24.21875 C 44.375 -28.132812 43.601562 -31.382812 42.0625 -33.96875 C 40.519531 -36.550781 38.5625 -38.425781 36.1875 -39.59375 C 33.820312 -40.757812 31.347656 -41.34375 28.765625 -41.34375 C 26.117188 -41.34375 23.609375 -40.757812 21.234375 -39.59375 C 18.867188 -38.425781 16.929688 -36.550781 15.421875 -33.96875 C 13.910156 -31.382812 13.15625 -28.132812 13.15625 -24.21875 C 13.15625 -20.25 13.910156 -16.96875 15.421875 -14.375 C 16.929688 -11.789062 18.867188 -9.898438 21.234375 -8.703125 C 23.609375 -7.503906 26.117188 -6.90625 28.765625 -6.90625 Z M 28.765625 -6.90625 "/></g></g></g><g fill="#ffffff" fill-opacity="1"><g transform="translate(303.834259, 175.066212)"><g><path d="M 11.734375 0.46875 C 10.535156 0.46875 9.523438 0.0625 8.703125 -0.75 C 7.878906 -1.570312 7.46875 -2.582031 7.46875 -3.78125 L 7.46875 -44.375 C 7.46875 -45.570312 7.878906 -46.597656 8.703125 -47.453125 C 9.523438 -48.304688 10.535156 -48.734375 11.734375 -48.734375 C 12.929688 -48.734375 13.957031 -48.304688 14.8125 -47.453125 C 15.664062 -46.597656 16.09375 -45.570312 16.09375 -44.375 L 16.09375 -40.5 C 18.488281 -43.144531 21.070312 -45.253906 23.84375 -46.828125 C 26.625 -48.410156 29.90625 -49.203125 33.6875 -49.203125 C 37.15625 -49.203125 40.164062 -48.378906 42.71875 -46.734375 C 45.28125 -45.097656 47.238281 -42.859375 48.59375 -40.015625 C 49.945312 -37.179688 50.625 -34.0625 50.625 -30.65625 L 50.625 -3.78125 C 50.625 -2.582031 50.195312 -1.570312 49.34375 -0.75 C 48.488281 0.0625 47.460938 0.46875 46.265625 0.46875 C 45.066406 0.46875 44.054688 0.0625 43.234375 -0.75 C 42.421875 -1.570312 42.015625 -2.582031 42.015625 -3.78125 L 42.015625 -29.71875 C 42.015625 -37.40625 38.546875 -41.25 31.609375 -41.25 C 28.453125 -41.25 25.625 -40.429688 23.125 -38.796875 C 20.632812 -37.160156 18.289062 -34.953125 16.09375 -32.171875 L 16.09375 -3.78125 C 16.09375 -2.582031 15.664062 -1.570312 14.8125 -0.75 C 13.957031 0.0625 12.929688 0.46875 11.734375 0.46875 Z M 11.734375 0.46875 "/></g></g></g><g fill="#ffffff" fill-opacity="1"><g transform="translate(361.453033, 175.066212)"><g><path d="M 11.546875 -58.09375 C 10.222656 -58.09375 9.085938 -58.566406 8.140625 -59.515625 C 7.191406 -60.460938 6.71875 -61.597656 6.71875 -62.921875 L 6.71875 -63.296875 C 6.71875 -64.628906 7.191406 -65.765625 8.140625 -66.703125 C 9.085938 -67.648438 10.222656 -68.125 11.546875 -68.125 L 12.109375 -68.125 C 13.429688 -68.125 14.566406 -67.648438 15.515625 -66.703125 C 16.460938 -65.765625 16.9375 -64.628906 16.9375 -63.296875 L 16.9375 -62.921875 C 16.9375 -61.597656 16.460938 -60.460938 15.515625 -59.515625 C 14.566406 -58.566406 13.429688 -58.09375 12.109375 -58.09375 Z M 11.734375 0.46875 C 10.535156 0.46875 9.523438 0.0625 8.703125 -0.75 C 7.878906 -1.570312 7.46875 -2.582031 7.46875 -3.78125 L 7.46875 -44.375 C 7.46875 -45.570312 7.878906 -46.597656 8.703125 -47.453125 C 9.523438 -48.304688 10.535156 -48.734375 11.734375 -48.734375 C 12.992188 -48.734375 14.035156 -48.320312 14.859375 -47.5 C 15.679688 -46.675781 16.09375 -45.632812 16.09375 -44.375 L 16.09375 -3.78125 C 16.09375 -2.582031 15.664062 -1.570312 14.8125 -0.75 C 13.957031 0.0625 12.929688 0.46875 11.734375 0.46875 Z M 11.734375 0.46875 "/></g></g></g><g fill="#ffffff" fill-opacity="1"><g transform="translate(385.011458, 175.066212)"><g><path d="M 29.8125 0.953125 C 25.269531 0.953125 21.070312 -0.0546875 17.21875 -2.078125 C 13.375 -4.097656 10.300781 -7 8 -10.78125 C 5.695312 -14.570312 4.546875 -19.019531 4.546875 -24.125 C 4.546875 -29.238281 5.695312 -33.6875 8 -37.46875 C 10.300781 -41.257812 13.375 -44.160156 17.21875 -46.171875 C 21.070312 -48.191406 25.269531 -49.203125 29.8125 -49.203125 C 33.15625 -49.203125 36.039062 -48.773438 38.46875 -47.921875 C 40.894531 -47.078125 43.148438 -45.988281 45.234375 -44.65625 C 46.492188 -43.84375 47.125 -42.738281 47.125 -41.34375 C 47.125 -40.40625 46.757812 -39.539062 46.03125 -38.75 C 45.3125 -37.957031 44.476562 -37.5625 43.53125 -37.5625 C 42.832031 -37.5625 42.140625 -37.753906 41.453125 -38.140625 C 39.367188 -39.210938 37.582031 -39.984375 36.09375 -40.453125 C 34.613281 -40.921875 32.769531 -41.15625 30.5625 -41.15625 C 25.132812 -41.15625 20.875 -39.59375 17.78125 -36.46875 C 14.695312 -33.351562 13.15625 -29.238281 13.15625 -24.125 C 13.15625 -19.019531 14.695312 -14.90625 17.78125 -11.78125 C 20.875 -8.65625 25.132812 -7.09375 30.5625 -7.09375 C 32.769531 -7.09375 34.613281 -7.328125 36.09375 -7.796875 C 37.582031 -8.273438 39.367188 -9.050781 41.453125 -10.125 C 42.140625 -10.5 42.832031 -10.6875 43.53125 -10.6875 C 44.476562 -10.6875 45.3125 -10.289062 46.03125 -9.5 C 46.757812 -8.71875 47.125 -7.851562 47.125 -6.90625 C 47.125 -5.519531 46.492188 -4.414062 45.234375 -3.59375 C 43.148438 -2.269531 40.894531 -1.179688 38.46875 -0.328125 C 36.039062 0.523438 33.15625 0.953125 29.8125 0.953125 Z M 29.8125 0.953125 "/></g></g></g><g fill="#ffffff" fill-opacity="1"><g transform="translate(435.439707, 175.066212)"><g><path d="M 28.765625 0.46875 C 27.566406 0.46875 26.554688 0.0625 25.734375 -0.75 C 24.921875 -1.570312 24.515625 -2.582031 24.515625 -3.78125 L 24.515625 -58 L 5.203125 -58 C 4.066406 -58 3.117188 -58.378906 2.359375 -59.140625 C 1.609375 -59.898438 1.234375 -60.847656 1.234375 -61.984375 C 1.234375 -63.117188 1.609375 -64.078125 2.359375 -64.859375 C 3.117188 -65.648438 4.066406 -66.046875 5.203125 -66.046875 L 52.328125 -66.046875 C 53.460938 -66.046875 54.421875 -65.648438 55.203125 -64.859375 C 55.992188 -64.078125 56.390625 -63.117188 56.390625 -61.984375 C 56.390625 -60.847656 55.992188 -59.898438 55.203125 -59.140625 C 54.421875 -58.378906 53.460938 -58 52.328125 -58 L 33.125 -58 L 33.125 -3.78125 C 33.125 -2.582031 32.695312 -1.570312 31.84375 -0.75 C 30.988281 0.0625 29.960938 0.46875 28.765625 0.46875 Z M 28.765625 0.46875 "/></g></g></g><g fill="#ffffff" fill-opacity="1"><g transform="translate(493.058481, 175.066212)"><g><path d="M 29.046875 0.953125 C 21.347656 0.953125 15.335938 -1.238281 11.015625 -5.625 C 6.703125 -10.007812 4.546875 -16.175781 4.546875 -24.125 C 4.546875 -28.601562 5.363281 -32.734375 7 -36.515625 C 8.644531 -40.304688 11.171875 -43.367188 14.578125 -45.703125 C 17.984375 -48.035156 22.175781 -49.203125 27.15625 -49.203125 C 31.820312 -49.203125 35.859375 -48.113281 39.265625 -45.9375 C 42.671875 -43.757812 45.253906 -40.859375 47.015625 -37.234375 C 48.785156 -33.609375 49.671875 -29.648438 49.671875 -25.359375 C 49.671875 -24.160156 49.273438 -23.148438 48.484375 -22.328125 C 47.703125 -21.503906 46.648438 -21.09375 45.328125 -21.09375 L 13.25 -21.09375 C 13.75 -16.6875 15.382812 -13.25 18.15625 -10.78125 C 20.9375 -8.320312 24.820312 -7.09375 29.8125 -7.09375 C 32.457031 -7.09375 34.773438 -7.34375 36.765625 -7.84375 C 38.753906 -8.351562 40.691406 -9.082031 42.578125 -10.03125 C 43.085938 -10.28125 43.65625 -10.40625 44.28125 -10.40625 C 45.289062 -10.40625 46.171875 -10.054688 46.921875 -9.359375 C 47.679688 -8.671875 48.0625 -7.789062 48.0625 -6.71875 C 48.0625 -5.332031 47.242188 -4.164062 45.609375 -3.21875 C 43.148438 -1.832031 40.722656 -0.789062 38.328125 -0.09375 C 35.929688 0.601562 32.835938 0.953125 29.046875 0.953125 Z M 41.15625 -28.109375 C 40.96875 -31.191406 40.164062 -33.773438 38.75 -35.859375 C 37.332031 -37.941406 35.582031 -39.472656 33.5 -40.453125 C 31.414062 -41.429688 29.300781 -41.921875 27.15625 -41.921875 C 25.007812 -41.921875 22.894531 -41.429688 20.8125 -40.453125 C 18.726562 -39.472656 16.992188 -37.941406 15.609375 -35.859375 C 14.222656 -33.773438 13.4375 -31.191406 13.25 -28.109375 Z M 41.15625 -28.109375 "/></g></g></g><g fill="#ffffff" fill-opacity="1"><g transform="translate(546.608929, 175.066212)"><g><path d="M 29.8125 0.953125 C 25.269531 0.953125 21.070312 -0.0546875 17.21875 -2.078125 C 13.375 -4.097656 10.300781 -7 8 -10.78125 C 5.695312 -14.570312 4.546875 -19.019531 4.546875 -24.125 C 4.546875 -29.238281 5.695312 -33.6875 8 -37.46875 C 10.300781 -41.257812 13.375 -44.160156 17.21875 -46.171875 C 21.070312 -48.191406 25.269531 -49.203125 29.8125 -49.203125 C 33.15625 -49.203125 36.039062 -48.773438 38.46875 -47.921875 C 40.894531 -47.078125 43.148438 -45.988281 45.234375 -44.65625 C 46.492188 -43.84375 47.125 -42.738281 47.125 -41.34375 C 47.125 -40.40625 46.757812 -39.539062 46.03125 -38.75 C 45.3125 -37.957031 44.476562 -37.5625 43.53125 -37.5625 C 42.832031 -37.5625 42.140625 -37.753906 41.453125 -38.140625 C 39.367188 -39.210938 37.582031 -39.984375 36.09375 -40.453125 C 34.613281 -40.921875 32.769531 -41.15625 30.5625 -41.15625 C 25.132812 -41.15625 20.875 -39.59375 17.78125 -36.46875 C 14.695312 -33.351562 13.15625 -29.238281 13.15625 -24.125 C 13.15625 -19.019531 14.695312 -14.90625 17.78125 -11.78125 C 20.875 -8.65625 25.132812 -7.09375 30.5625 -7.09375 C 32.769531 -7.09375 34.613281 -7.328125 36.09375 -7.796875 C 37.582031 -8.273438 39.367188 -9.050781 41.453125 -10.125 C 42.140625 -10.5 42.832031 -10.6875 43.53125 -10.6875 C 44.476562 -10.6875 45.3125 -10.289062 46.03125 -9.5 C 46.757812 -8.71875 47.125 -7.851562 47.125 -6.90625 C 47.125 -5.519531 46.492188 -4.414062 45.234375 -3.59375 C 43.148438 -2.269531 40.894531 -1.179688 38.46875 -0.328125 C 36.039062 0.523438 33.15625 0.953125 29.8125 0.953125 Z M 29.8125 0.953125 "/></g></g></g><g fill="#ffffff" fill-opacity="1"><g transform="translate(597.037178, 175.066212)"><g><path d="M 11.734375 0.46875 C 10.535156 0.46875 9.523438 0.0625 8.703125 -0.75 C 7.878906 -1.570312 7.46875 -2.582031 7.46875 -3.78125 L 7.46875 -65.203125 C 7.46875 -66.398438 7.878906 -67.421875 8.703125 -68.265625 C 9.523438 -69.117188 10.535156 -69.546875 11.734375 -69.546875 C 12.929688 -69.546875 13.957031 -69.117188 14.8125 -68.265625 C 15.664062 -67.421875 16.09375 -66.398438 16.09375 -65.203125 L 16.09375 -40.5 C 18.488281 -43.144531 21.070312 -45.253906 23.84375 -46.828125 C 26.625 -48.410156 29.90625 -49.203125 33.6875 -49.203125 C 37.15625 -49.203125 40.164062 -48.378906 42.71875 -46.734375 C 45.28125 -45.097656 47.238281 -42.859375 48.59375 -40.015625 C 49.945312 -37.179688 50.625 -34.0625 50.625 -30.65625 L 50.625 -3.78125 C 50.625 -2.582031 50.195312 -1.570312 49.34375 -0.75 C 48.488281 0.0625 47.460938 0.46875 46.265625 0.46875 C 45.066406 0.46875 44.054688 0.0625 43.234375 -0.75 C 42.421875 -1.570312 42.015625 -2.582031 42.015625 -3.78125 L 42.015625 -29.71875 C 42.015625 -37.40625 38.546875 -41.25 31.609375 -41.25 C 28.453125 -41.25 25.625 -40.429688 23.125 -38.796875 C 20.632812 -37.160156 18.289062 -34.953125 16.09375 -32.171875 L 16.09375 -3.78125 C 16.09375 -2.582031 15.664062 -1.570312 14.8125 -0.75 C 13.957031 0.0625 12.929688 0.46875 11.734375 0.46875 Z M 11.734375 0.46875 "/></g></g></g><g fill="#ffffff" fill-opacity="1"><g transform="translate(658.548205, 177.603773)"><g><path d="M 5.054688 0 L 5.054688 -10.601562 L 15.832031 -10.601562 L 15.832031 0 L 18.269531 0 L 18.269531 -23.710938 L 15.832031 -23.710938 L 15.832031 -13.039062 L 5.054688 -13.039062 L 5.054688 -23.710938 L 2.613281 -23.710938 L 2.613281 0 Z M 5.054688 0 "/></g></g></g><g fill="#ffffff" fill-opacity="1"><g transform="translate(691.639378, 177.603773)"><g><path d="M 19.769531 -7.84375 L 19.769531 -23.710938 L 17.328125 -23.710938 L 17.328125 -7.496094 C 17.328125 -6.519531 17.15625 -5.71875 16.804688 -5.054688 C 15.796875 -3.101562 13.84375 -2.128906 10.949219 -2.128906 C 9.066406 -2.128906 7.566406 -2.546875 6.449219 -3.382812 C 5.160156 -4.324219 4.53125 -5.683594 4.53125 -7.496094 L 4.53125 -23.710938 L 2.09375 -23.710938 L 2.09375 -7.84375 C 2.09375 -5.265625 2.929688 -3.242188 4.601562 -1.777344 C 6.171875 -0.382812 8.296875 0.3125 10.949219 0.3125 C 13.5625 0.3125 15.65625 -0.382812 17.257812 -1.777344 C 18.933594 -3.242188 19.769531 -5.265625 19.769531 -7.84375 Z M 19.769531 -7.84375 "/></g></g></g><g fill="#ffffff" fill-opacity="1"><g transform="translate(725.706769, 177.603773)"><g><path d="M 18.097656 -6.589844 C 18.097656 -8.265625 17.679688 -9.691406 16.875 -10.808594 C 16.039062 -11.925781 14.921875 -12.691406 13.5625 -13.074219 C 14.367188 -13.425781 15.0625 -14.050781 15.585938 -14.992188 C 15.832031 -15.410156 16.003906 -15.832031 16.144531 -16.285156 C 16.285156 -16.738281 16.351562 -17.363281 16.351562 -18.167969 C 16.351562 -18.933594 16.144531 -19.734375 15.796875 -20.503906 C 14.75 -22.628906 12.484375 -23.710938 9.03125 -23.710938 L 2.613281 -23.710938 L 2.613281 0 L 9.867188 0 C 12.273438 0 14.191406 -0.523438 15.65625 -1.640625 C 16.386719 -2.195312 16.980469 -2.929688 17.433594 -3.835938 C 17.851562 -4.707031 18.097656 -5.613281 18.097656 -6.589844 Z M 13.914062 -17.78125 C 13.914062 -16.492188 13.527344 -15.550781 12.761719 -14.921875 C 11.996094 -14.296875 10.984375 -13.980469 9.726562 -13.980469 L 5.054688 -13.980469 L 5.054688 -21.375 L 9.03125 -21.375 C 12.273438 -21.375 13.914062 -20.152344 13.914062 -17.78125 Z M 15.65625 -7.078125 C 15.65625 -5.648438 15.167969 -4.496094 14.191406 -3.625 C 13.25 -2.753906 12.03125 -2.335938 10.566406 -2.335938 L 5.054688 -2.335938 L 5.054688 -11.542969 L 10.949219 -11.542969 C 12.167969 -11.542969 13.25 -11.121094 14.191406 -10.285156 C 14.609375 -9.902344 14.957031 -9.449219 15.238281 -8.925781 C 15.515625 -8.367188 15.65625 -7.777344 15.65625 -7.078125 Z M 15.65625 -7.078125 "/></g></g></g><g fill="#ffffff" fill-opacity="1"><g transform="translate(200.385428, 214.805436)"><g><path d="M 20.910156 -6.222656 L 18.605469 -6.222656 C 17.886719 -4.90625 16.902344 -3.828125 15.644531 -3.050781 C 14.386719 -2.242188 12.984375 -1.855469 11.488281 -1.855469 C 9.242188 -1.855469 7.328125 -2.664062 5.742188 -4.335938 C 4.1875 -5.921875 3.441406 -7.867188 3.441406 -10.140625 C 3.441406 -12.414062 4.1875 -14.359375 5.742188 -15.972656 C 6.460938 -16.722656 7.328125 -17.320312 8.316406 -17.769531 C 9.273438 -18.21875 10.230469 -18.457031 11.1875 -18.457031 C 12.113281 -18.457031 12.921875 -18.335938 13.640625 -18.128906 C 15.824219 -17.46875 17.46875 -16.152344 18.578125 -14.148438 L 20.878906 -14.148438 C 20.101562 -16.0625 18.875 -17.621094 17.171875 -18.816406 C 15.4375 -20.011719 13.550781 -20.609375 11.488281 -20.609375 C 8.644531 -20.609375 6.253906 -19.5625 4.277344 -17.5 C 3.351562 -16.542969 2.632812 -15.40625 2.125 -14.148438 C 1.585938 -12.894531 1.347656 -11.546875 1.347656 -10.140625 C 1.347656 -7.269531 2.304688 -4.847656 4.277344 -2.8125 C 6.253906 -0.71875 8.644531 0.300781 11.488281 0.300781 C 13.550781 0.300781 15.4375 -0.300781 17.199219 -1.496094 C 18.90625 -2.691406 20.132812 -4.246094 20.910156 -6.222656 Z M 20.910156 -6.222656 "/></g></g></g><g fill="#ffffff" fill-opacity="1"><g transform="translate(232.665165, 214.805436)"><g><path d="M 9.003906 -10.441406 L 9.003906 -13.160156 C 8.585938 -13.339844 8.136719 -13.429688 7.6875 -13.429688 C 6.191406 -13.429688 5.117188 -12.59375 4.425781 -10.976562 L 4.335938 -10.441406 L 4.335938 -13.160156 L 2.242188 -13.160156 L 2.242188 0 L 4.335938 0 L 4.335938 -6.582031 C 4.335938 -7.65625 4.578125 -8.613281 5.085938 -9.484375 C 5.324219 -9.929688 5.652344 -10.320312 6.042969 -10.621094 C 6.429688 -10.917969 6.910156 -11.097656 7.449219 -11.097656 C 7.988281 -11.097656 8.496094 -10.859375 9.003906 -10.441406 Z M 9.003906 -10.441406 "/></g></g></g><g fill="#ffffff" fill-opacity="1"><g transform="translate(252.442501, 214.805436)"><g><path d="M 15.105469 -6.878906 C 15.105469 -8.675781 14.386719 -10.230469 13.011719 -11.578125 C 11.667969 -12.863281 10.050781 -13.519531 8.226562 -13.519531 C 6.3125 -13.519531 4.695312 -12.832031 3.351562 -11.488281 C 2.003906 -10.140625 1.347656 -8.527344 1.347656 -6.640625 C 1.347656 -4.726562 2.003906 -3.109375 3.351562 -1.792969 C 3.980469 -1.167969 4.695312 -0.6875 5.535156 -0.328125 C 6.371094 0.03125 7.359375 0.210938 8.527344 0.210938 C 9.691406 0.210938 10.828125 -0.148438 11.964844 -0.867188 C 13.101562 -1.585938 13.941406 -2.601562 14.507812 -3.859375 L 12.113281 -3.859375 C 11.636719 -3.230469 11.066406 -2.753906 10.378906 -2.394531 C 9.691406 -2.035156 8.972656 -1.882812 8.226562 -1.882812 C 7.089844 -1.882812 6.074219 -2.242188 5.175781 -2.992188 C 4.277344 -3.710938 3.710938 -4.636719 3.53125 -5.773438 L 15.105469 -5.773438 Z M 12.894531 -7.566406 L 3.558594 -7.566406 C 3.679688 -8.105469 3.890625 -8.613281 4.1875 -9.09375 C 5.144531 -10.648438 6.492188 -11.425781 8.226562 -11.425781 C 9.332031 -11.425781 10.320312 -11.066406 11.1875 -10.351562 C 12.085938 -9.601562 12.625 -8.675781 12.894531 -7.566406 Z M 12.894531 -7.566406 "/></g></g></g><g fill="#ffffff" fill-opacity="1"><g transform="translate(279.218776, 214.805436)"><g><path d="M 12.714844 -6.582031 C 12.714844 -5.292969 12.265625 -4.15625 11.367188 -3.230469 C 10.46875 -2.273438 9.363281 -1.792969 8.078125 -1.792969 C 6.761719 -1.792969 5.652344 -2.273438 4.757812 -3.230469 C 3.859375 -4.15625 3.441406 -5.292969 3.441406 -6.582031 C 3.441406 -7.835938 3.859375 -8.972656 4.757812 -9.929688 C 5.652344 -10.886719 6.761719 -11.367188 8.078125 -11.367188 C 9.363281 -11.367188 10.46875 -10.886719 11.367188 -9.929688 C 12.265625 -8.972656 12.714844 -7.835938 12.714844 -6.582031 Z M 14.808594 0 L 14.808594 -13.160156 L 12.714844 -13.160156 L 12.714844 -10.886719 C 12.59375 -11.066406 12.445312 -11.21875 12.324219 -11.367188 C 11.066406 -12.742188 9.542969 -13.460938 7.746094 -13.460938 C 5.921875 -13.460938 4.398438 -12.742188 3.140625 -11.367188 C 1.945312 -9.992188 1.347656 -8.40625 1.347656 -6.582031 C 1.347656 -4.726562 1.945312 -3.140625 3.140625 -1.792969 C 4.398438 -0.390625 5.921875 0.300781 7.746094 0.300781 C 9.542969 0.300781 11.066406 -0.390625 12.324219 -1.792969 C 12.445312 -1.914062 12.59375 -2.0625 12.714844 -2.242188 L 12.714844 0 Z M 14.808594 0 "/></g></g></g><g fill="#ffffff" fill-opacity="1"><g transform="translate(306.742795, 214.805436)"><g><path d="M 0.597656 -11.21875 L 3.890625 -11.21875 L 3.890625 0 L 5.984375 0 L 5.984375 -11.21875 L 9.242188 -11.21875 L 9.242188 -13.160156 L 5.984375 -13.160156 L 5.984375 -18.277344 L 3.890625 -18.277344 L 3.890625 -13.160156 L 0.597656 -13.160156 Z M 0.597656 -11.21875 "/></g></g></g><g fill="#ffffff" fill-opacity="1"><g transform="translate(327.058491, 214.805436)"><g><path d="M 15.105469 -6.878906 C 15.105469 -8.675781 14.386719 -10.230469 13.011719 -11.578125 C 11.667969 -12.863281 10.050781 -13.519531 8.226562 -13.519531 C 6.3125 -13.519531 4.695312 -12.832031 3.351562 -11.488281 C 2.003906 -10.140625 1.347656 -8.527344 1.347656 -6.640625 C 1.347656 -4.726562 2.003906 -3.109375 3.351562 -1.792969 C 3.980469 -1.167969 4.695312 -0.6875 5.535156 -0.328125 C 6.371094 0.03125 7.359375 0.210938 8.527344 0.210938 C 9.691406 0.210938 10.828125 -0.148438 11.964844 -0.867188 C 13.101562 -1.585938 13.941406 -2.601562 14.507812 -3.859375 L 12.113281 -3.859375 C 11.636719 -3.230469 11.066406 -2.753906 10.378906 -2.394531 C 9.691406 -2.035156 8.972656 -1.882812 8.226562 -1.882812 C 7.089844 -1.882812 6.074219 -2.242188 5.175781 -2.992188 C 4.277344 -3.710938 3.710938 -4.636719 3.53125 -5.773438 L 15.105469 -5.773438 Z M 12.894531 -7.566406 L 3.558594 -7.566406 C 3.679688 -8.105469 3.890625 -8.613281 4.1875 -9.09375 C 5.144531 -10.648438 6.492188 -11.425781 8.226562 -11.425781 C 9.332031 -11.425781 10.320312 -11.066406 11.1875 -10.351562 C 12.085938 -9.601562 12.625 -8.675781 12.894531 -7.566406 Z M 12.894531 -7.566406 "/></g></g></g><g fill="#ffffff" fill-opacity="1"><g transform="translate(353.834759, 214.805436)"><g><path d="M 3.980469 0.300781 C 4.425781 0.300781 4.847656 0.148438 5.203125 -0.179688 C 5.5625 -0.507812 5.742188 -0.898438 5.742188 -1.375 C 5.742188 -1.855469 5.5625 -2.242188 5.203125 -2.574219 C 4.847656 -2.902344 4.457031 -3.082031 3.980469 -3.082031 C 3.5 -3.082031 3.082031 -2.902344 2.753906 -2.574219 C 2.394531 -2.214844 2.242188 -1.824219 2.242188 -1.375 C 2.242188 -0.898438 2.394531 -0.507812 2.753906 -0.179688 C 3.109375 0.148438 3.5 0.300781 3.980469 0.300781 Z M 3.980469 0.300781 "/></g></g></g><g fill="#ffffff" fill-opacity="1"><g transform="translate(372.296034, 214.805436)"><g/></g></g><g fill="#ffffff" fill-opacity="1"><g transform="translate(390.847047, 214.805436)"><g><path d="M 20.910156 -6.222656 L 18.605469 -6.222656 C 17.886719 -4.90625 16.902344 -3.828125 15.644531 -3.050781 C 14.386719 -2.242188 12.984375 -1.855469 11.488281 -1.855469 C 9.242188 -1.855469 7.328125 -2.664062 5.742188 -4.335938 C 4.1875 -5.921875 3.441406 -7.867188 3.441406 -10.140625 C 3.441406 -12.414062 4.1875 -14.359375 5.742188 -15.972656 C 6.460938 -16.722656 7.328125 -17.320312 8.316406 -17.769531 C 9.273438 -18.21875 10.230469 -18.457031 11.1875 -18.457031 C 12.113281 -18.457031 12.921875 -18.335938 13.640625 -18.128906 C 15.824219 -17.46875 17.46875 -16.152344 18.578125 -14.148438 L 20.878906 -14.148438 C 20.101562 -16.0625 18.875 -17.621094 17.171875 -18.816406 C 15.4375 -20.011719 13.550781 -20.609375 11.488281 -20.609375 C 8.644531 -20.609375 6.253906 -19.5625 4.277344 -17.5 C 3.351562 -16.542969 2.632812 -15.40625 2.125 -14.148438 C 1.585938 -12.894531 1.347656 -11.546875 1.347656 -10.140625 C 1.347656 -7.269531 2.304688 -4.847656 4.277344 -2.8125 C 6.253906 -0.71875 8.644531 0.300781 11.488281 0.300781 C 13.550781 0.300781 15.4375 -0.300781 17.199219 -1.496094 C 18.90625 -2.691406 20.132812 -4.246094 20.910156 -6.222656 Z M 20.910156 -6.222656 "/></g></g></g><g fill="#ffffff" fill-opacity="1"><g transform="translate(423.126781, 214.805436)"><g><path d="M 13.011719 -6.640625 C 13.011719 -5.324219 12.535156 -4.21875 11.605469 -3.289062 C 10.648438 -2.332031 9.542969 -1.882812 8.226562 -1.882812 C 6.910156 -1.882812 5.773438 -2.332031 4.847656 -3.289062 C 3.890625 -4.21875 3.441406 -5.324219 3.441406 -6.640625 C 3.441406 -7.957031 3.890625 -9.0625 4.847656 -10.019531 C 5.773438 -10.949219 6.910156 -11.425781 8.226562 -11.425781 C 9.542969 -11.425781 10.648438 -10.949219 11.605469 -10.019531 C 12.535156 -9.0625 13.011719 -7.957031 13.011719 -6.640625 Z M 15.105469 -6.640625 C 15.105469 -8.527344 14.417969 -10.140625 13.074219 -11.488281 C 11.726562 -12.832031 10.109375 -13.519531 8.226562 -13.519531 C 6.3125 -13.519531 4.695312 -12.832031 3.351562 -11.488281 C 2.003906 -10.140625 1.347656 -8.527344 1.347656 -6.640625 C 1.347656 -4.726562 2.003906 -3.109375 3.351562 -1.792969 C 4.695312 -0.449219 6.339844 0.210938 8.226562 0.210938 C 10.082031 0.210938 11.726562 -0.449219 13.074219 -1.792969 C 14.417969 -3.109375 15.105469 -4.726562 15.105469 -6.640625 Z M 15.105469 -6.640625 "/></g></g></g><g fill="#ffffff" fill-opacity="1"><g transform="translate(450.052625, 214.805436)"><g><path d="M 11.335938 0 L 13.429688 0 L 13.429688 -8.226562 C 13.429688 -9.75 13.011719 -10.976562 12.234375 -11.90625 C 11.816406 -12.382812 11.335938 -12.742188 10.769531 -13.011719 C 10.171875 -13.28125 9.421875 -13.429688 8.496094 -13.429688 C 7.539062 -13.429688 6.730469 -13.160156 6.011719 -12.683594 C 5.324219 -12.234375 4.757812 -11.636719 4.335938 -10.886719 L 4.335938 -13.160156 L 2.242188 -13.160156 L 2.242188 0 L 4.335938 0 L 4.335938 -5.503906 C 4.335938 -7.179688 4.636719 -8.496094 5.265625 -9.484375 C 5.625 -10.019531 6.074219 -10.46875 6.640625 -10.828125 C 7.179688 -11.15625 7.925781 -11.335938 8.824219 -11.335938 C 9.722656 -11.335938 10.351562 -11.007812 10.738281 -10.410156 C 11.128906 -9.8125 11.335938 -9.0625 11.335938 -8.226562 Z M 11.335938 0 "/></g></g></g><g fill="#ffffff" fill-opacity="1"><g transform="translate(475.752151, 214.805436)"><g><path d="M 11.335938 0 L 13.429688 0 L 13.429688 -8.226562 C 13.429688 -9.75 13.011719 -10.976562 12.234375 -11.90625 C 11.816406 -12.382812 11.335938 -12.742188 10.769531 -13.011719 C 10.171875 -13.28125 9.421875 -13.429688 8.496094 -13.429688 C 7.539062 -13.429688 6.730469 -13.160156 6.011719 -12.683594 C 5.324219 -12.234375 4.757812 -11.636719 4.335938 -10.886719 L 4.335938 -13.160156 L 2.242188 -13.160156 L 2.242188 0 L 4.335938 0 L 4.335938 -5.503906 C 4.335938 -7.179688 4.636719 -8.496094 5.265625 -9.484375 C 5.625 -10.019531 6.074219 -10.46875 6.640625 -10.828125 C 7.179688 -11.15625 7.925781 -11.335938 8.824219 -11.335938 C 9.722656 -11.335938 10.351562 -11.007812 10.738281 -10.410156 C 11.128906 -9.8125 11.335938 -9.0625 11.335938 -8.226562 Z M 11.335938 0 "/></g></g></g><g fill="#ffffff" fill-opacity="1"><g transform="translate(501.451676, 214.805436)"><g><path d="M 15.105469 -6.878906 C 15.105469 -8.675781 14.386719 -10.230469 13.011719 -11.578125 C 11.667969 -12.863281 10.050781 -13.519531 8.226562 -13.519531 C 6.3125 -13.519531 4.695312 -12.832031 3.351562 -11.488281 C 2.003906 -10.140625 1.347656 -8.527344 1.347656 -6.640625 C 1.347656 -4.726562 2.003906 -3.109375 3.351562 -1.792969 C 3.980469 -1.167969 4.695312 -0.6875 5.535156 -0.328125 C 6.371094 0.03125 7.359375 0.210938 8.527344 0.210938 C 9.691406 0.210938 10.828125 -0.148438 11.964844 -0.867188 C 13.101562 -1.585938 13.941406 -2.601562 14.507812 -3.859375 L 12.113281 -3.859375 C 11.636719 -3.230469 11.066406 -2.753906 10.378906 -2.394531 C 9.691406 -2.035156 8.972656 -1.882812 8.226562 -1.882812 C 7.089844 -1.882812 6.074219 -2.242188 5.175781 -2.992188 C 4.277344 -3.710938 3.710938 -4.636719 3.53125 -5.773438 L 15.105469 -5.773438 Z M 12.894531 -7.566406 L 3.558594 -7.566406 C 3.679688 -8.105469 3.890625 -8.613281 4.1875 -9.09375 C 5.144531 -10.648438 6.492188 -11.425781 8.226562 -11.425781 C 9.332031 -11.425781 10.320312 -11.066406 11.1875 -10.351562 C 12.085938 -9.601562 12.625 -8.675781 12.894531 -7.566406 Z M 12.894531 -7.566406 "/></g></g></g><g fill="#ffffff" fill-opacity="1"><g transform="translate(528.227959, 214.805436)"><g><path d="M 14.539062 -8.4375 C 14.121094 -9.902344 13.3125 -11.097656 12.144531 -12.023438 C 10.917969 -12.953125 9.574219 -13.429688 8.078125 -13.429688 C 6.191406 -13.429688 4.578125 -12.742188 3.289062 -11.398438 C 1.972656 -10.050781 1.347656 -8.4375 1.347656 -6.582031 C 1.347656 -4.695312 1.972656 -3.109375 3.289062 -1.734375 C 3.890625 -1.105469 4.578125 -0.597656 5.414062 -0.238281 C 6.222656 0.121094 7.058594 0.300781 7.898438 0.300781 C 8.734375 0.300781 9.484375 0.210938 10.140625 -0.03125 C 12.234375 -0.777344 13.671875 -2.183594 14.417969 -4.308594 L 12.054688 -4.308594 C 11.636719 -3.558594 11.097656 -2.960938 10.378906 -2.542969 C 9.664062 -2.09375 8.914062 -1.882812 8.078125 -1.882812 C 6.789062 -1.882812 5.714844 -2.332031 4.816406 -3.261719 C 3.917969 -4.1875 3.5 -5.292969 3.5 -6.582031 C 3.5 -7.808594 3.917969 -8.914062 4.816406 -9.839844 C 5.234375 -10.261719 5.714844 -10.621094 6.28125 -10.859375 C 6.820312 -11.097656 7.507812 -11.246094 8.285156 -11.246094 C 9.0625 -11.246094 9.8125 -10.976562 10.589844 -10.46875 C 11.335938 -9.929688 11.90625 -9.273438 12.265625 -8.4375 Z M 14.539062 -8.4375 "/></g></g></g><g fill="#ffffff" fill-opacity="1"><g transform="translate(554.286404, 214.805436)"><g><path d="M 0.597656 -11.21875 L 3.890625 -11.21875 L 3.890625 0 L 5.984375 0 L 5.984375 -11.21875 L 9.242188 -11.21875 L 9.242188 -13.160156 L 5.984375 -13.160156 L 5.984375 -18.277344 L 3.890625 -18.277344 L 3.890625 -13.160156 L 0.597656 -13.160156 Z M 0.597656 -11.21875 "/></g></g></g><g fill="#ffffff" fill-opacity="1"><g transform="translate(574.602114, 214.805436)"><g><path d="M 3.980469 0.300781 C 4.425781 0.300781 4.847656 0.148438 5.203125 -0.179688 C 5.5625 -0.507812 5.742188 -0.898438 5.742188 -1.375 C 5.742188 -1.855469 5.5625 -2.242188 5.203125 -2.574219 C 4.847656 -2.902344 4.457031 -3.082031 3.980469 -3.082031 C 3.5 -3.082031 3.082031 -2.902344 2.753906 -2.574219 C 2.394531 -2.214844 2.242188 -1.824219 2.242188 -1.375 C 2.242188 -0.898438 2.394531 -0.507812 2.753906 -0.179688 C 3.109375 0.148438 3.5 0.300781 3.980469 0.300781 Z M 3.980469 0.300781 "/></g></g></g><g fill="#ffffff" fill-opacity="1"><g transform="translate(593.063404, 214.805436)"><g/></g></g><g fill="#ffffff" fill-opacity="1"><g transform="translate(611.614431, 214.805436)"><g><path d="M 22.316406 -9.511719 L 11.726562 -9.511719 L 11.726562 -7.6875 L 19.984375 -7.6875 C 19.355469 -5.921875 18.308594 -4.488281 16.8125 -3.441406 C 15.316406 -2.363281 13.640625 -1.855469 11.816406 -1.855469 C 9.484375 -1.855469 7.507812 -2.664062 5.863281 -4.308594 C 4.246094 -5.953125 3.441406 -7.957031 3.441406 -10.261719 C 3.441406 -12.5625 4.246094 -14.539062 5.894531 -16.183594 C 7.507812 -17.796875 9.484375 -18.636719 11.816406 -18.636719 C 13.550781 -18.636719 15.136719 -18.128906 16.542969 -17.140625 C 17.976562 -16.152344 18.996094 -14.867188 19.652344 -13.222656 L 21.867188 -13.222656 C 21.179688 -15.464844 19.894531 -17.261719 18.039062 -18.636719 C 16.183594 -20.011719 14.03125 -20.730469 11.605469 -20.730469 C 10.289062 -20.730469 9.003906 -20.429688 7.746094 -19.894531 C 6.460938 -19.355469 5.355469 -18.605469 4.398438 -17.648438 C 3.441406 -16.691406 2.691406 -15.585938 2.152344 -14.328125 C 1.617188 -13.042969 1.347656 -11.667969 1.347656 -10.230469 C 1.347656 -8.792969 1.617188 -7.417969 2.152344 -6.164062 C 2.691406 -4.875 3.441406 -3.769531 4.398438 -2.8125 C 5.355469 -1.855469 6.460938 -1.105469 7.746094 -0.570312 C 9.003906 -0.03125 10.378906 0.238281 11.816406 0.238281 C 14.269531 0.238281 16.484375 -0.539062 18.457031 -2.125 C 20.429688 -3.738281 21.65625 -5.773438 22.105469 -8.257812 Z M 22.316406 -9.511719 "/></g></g></g><g fill="#ffffff" fill-opacity="1"><g transform="translate(645.748599, 214.805436)"><g><path d="M 9.003906 -10.441406 L 9.003906 -13.160156 C 8.585938 -13.339844 8.136719 -13.429688 7.6875 -13.429688 C 6.191406 -13.429688 5.117188 -12.59375 4.425781 -10.976562 L 4.335938 -10.441406 L 4.335938 -13.160156 L 2.242188 -13.160156 L 2.242188 0 L 4.335938 0 L 4.335938 -6.582031 C 4.335938 -7.65625 4.578125 -8.613281 5.085938 -9.484375 C 5.324219 -9.929688 5.652344 -10.320312 6.042969 -10.621094 C 6.429688 -10.917969 6.910156 -11.097656 7.449219 -11.097656 C 7.988281 -11.097656 8.496094 -10.859375 9.003906 -10.441406 Z M 9.003906 -10.441406 "/></g></g></g><g fill="#ffffff" fill-opacity="1"><g transform="translate(665.525946, 214.805436)"><g><path d="M 13.011719 -6.640625 C 13.011719 -5.324219 12.535156 -4.21875 11.605469 -3.289062 C 10.648438 -2.332031 9.542969 -1.882812 8.226562 -1.882812 C 6.910156 -1.882812 5.773438 -2.332031 4.847656 -3.289062 C 3.890625 -4.21875 3.441406 -5.324219 3.441406 -6.640625 C 3.441406 -7.957031 3.890625 -9.0625 4.847656 -10.019531 C 5.773438 -10.949219 6.910156 -11.425781 8.226562 -11.425781 C 9.542969 -11.425781 10.648438 -10.949219 11.605469 -10.019531 C 12.535156 -9.0625 13.011719 -7.957031 13.011719 -6.640625 Z M 15.105469 -6.640625 C 15.105469 -8.527344 14.417969 -10.140625 13.074219 -11.488281 C 11.726562 -12.832031 10.109375 -13.519531 8.226562 -13.519531 C 6.3125 -13.519531 4.695312 -12.832031 3.351562 -11.488281 C 2.003906 -10.140625 1.347656 -8.527344 1.347656 -6.640625 C 1.347656 -4.726562 2.003906 -3.109375 3.351562 -1.792969 C 4.695312 -0.449219 6.339844 0.210938 8.226562 0.210938 C 10.082031 0.210938 11.726562 -0.449219 13.074219 -1.792969 C 14.417969 -3.109375 15.105469 -4.726562 15.105469 -6.640625 Z M 15.105469 -6.640625 "/></g></g></g><g fill="#ffffff" fill-opacity="1"><g transform="translate(692.45179, 214.805436)"><g><path d="M 15.105469 1.675781 L 21.359375 -13.160156 L 19.023438 -13.160156 L 15.078125 -3.019531 L 10.828125 -13.851562 L 6.582031 -3.019531 L 2.632812 -13.160156 L 0.300781 -13.160156 L 6.609375 1.675781 L 10.828125 -8.945312 Z M 15.105469 1.675781 "/></g></g></g></svg>